<?xml version="1.0" encoding="UTF-8" standalone="no"?>
<!-- Created with Inkscape (https://www.inkscape.org/) -->
<!-- ClipArt by Arvin61r58 (https://openclipart.org/user-detail/Arvin61r58) -->
<svg
   xmlns:dc="http://purl.org/dc/elements/1.1/"
   xmlns:cc="http://creativecommons.org/ns#"
   xmlns:rdf="http://www.w3.org/1999/02/22-rdf-syntax-ns#"
   xmlns:svg="http://www.w3.org/2000/svg"
   xmlns="http://www.w3.org/2000/svg"
   xmlns:xlink="http://www.w3.org/1999/xlink"
   id="svg1319"
   version="1.1"
   viewBox="0 0 205.84583 11.535833"
   height="43.599998"
   width="778">
  <title
     id="title2016">Grunge Divider 2</title>
  <defs
     id="defs1313">
    <linearGradient
       gradientUnits="userSpaceOnUse"
       y2="10.65023"
       x2="177.79347"
       y1="10.65023"
       x1="31.95598"
       id="linearGradient923"
       xlink:href="#linearGradient873" />
    <linearGradient
       id="linearGradient873">
      <stop
         stop-color="#4a4a4a"
         offset="0"
         id="stop823" />
      <stop
         stop-color="#474747"
         offset="0.041667"
         id="stop825" />
      <stop
         stop-color="#4c4c4c"
         offset="0.083333"
         id="stop827" />
      <stop
         stop-color="#5e5e5e"
         offset="0.125"
         id="stop829" />
      <stop
         stop-color="#4a4a4a"
         offset="0.166667"
         id="stop831" />
      <stop
         stop-color="#525252"
         offset="0.208333"
         id="stop833" />
      <stop
         stop-color="#4d4d4d"
         offset="0.25"
         id="stop835" />
      <stop
         stop-color="#5d5d5d"
         offset="0.291667"
         id="stop837" />
      <stop
         stop-color="#616161"
         offset="0.333333"
         id="stop839" />
      <stop
         stop-color="#606060"
         offset="0.375"
         id="stop841" />
      <stop
         stop-color="#676767"
         offset="0.416667"
         id="stop843" />
      <stop
         stop-color="#5b5b5b"
         offset="0.458333"
         id="stop845" />
      <stop
         stop-color="#6a6a6a"
         offset="0.5"
         id="stop847" />
      <stop
         stop-color="#636363"
         offset="0.541667"
         id="stop849" />
      <stop
         stop-color="#6f6f6f"
         offset="0.583333"
         id="stop851" />
      <stop
         stop-color="#6e6e6e"
         offset="0.625"
         id="stop853" />
      <stop
         stop-color="#565656"
         offset="0.666667"
         id="stop855" />
      <stop
         stop-color="#444444"
         offset="0.708333"
         id="stop857" />
      <stop
         stop-color="#4a4a4a"
         offset="0.75"
         id="stop859" />
      <stop
         stop-color="#535353"
         offset="0.791667"
         id="stop861" />
      <stop
         stop-color="#494949"
         offset="0.833333"
         id="stop863" />
      <stop
         stop-color="#646464"
         offset="0.875"
         id="stop865" />
      <stop
         stop-color="#4f4f4f"
         offset="0.916667"
         id="stop867" />
      <stop
         stop-color="#4a4a4a"
         offset="0.958333"
         id="stop869" />
      <stop
         stop-color="#515151"
         offset="1"
         id="stop871" />
    </linearGradient>
    <filter
       height="1"
       y="0"
       width="1"
       x="0"
       id="filter1311"
       style="color-interpolation-filters:sRGB">
      <feTurbulence
         id="feTurbulence1303"
         baseFrequency="0.74099999999999999"
         type="fractalNoise"
         seed="0"
         numOctaves="5" />
      <feGaussianBlur
         id="feGaussianBlur1305"
         result="result91"
         stdDeviation="0.5" />
      <feDisplacementMap
         id="feDisplacementMap1307"
         in2="result91"
         result="result1"
         in="SourceGraphic"
         xChannelSelector="R"
         yChannelSelector="G"
         scale="63.2" />
      <feComposite
         id="feComposite1309"
         operator="atop"
         in2="SourceGraphic"
         in="result1" />
    </filter>
  </defs>
  <metadata
     id="metadata1316">
    <rdf:RDF>
      <cc:Work
         rdf:about="">
        <dc:format>image/svg+xml</dc:format>
        <dc:type
           rdf:resource="http://purl.org/dc/dcmitype/StillImage" />
        <dc:title>Grunge Divider 2</dc:title>
        <cc:license
           rdf:resource="http://creativecommons.org/publicdomain/zero/1.0/" />
        <dc:subject>
          <rdf:Bag>
            <rdf:li>abstract</rdf:li>
            <rdf:li>banner</rdf:li>
            <rdf:li>border</rdf:li>
            <rdf:li>divider</rdf:li>
            <rdf:li>footer</rdf:li>
            <rdf:li>frame</rdf:li>
            <rdf:li>grunge</rdf:li>
            <rdf:li>header</rdf:li>
            <rdf:li>horizontal rule</rdf:li>
            <rdf:li>line rule</rdf:li>
            <rdf:li>page rule</rdf:li>
          </rdf:Bag>
        </dc:subject>
        <dc:description>Grunge or abstract style divider rule</dc:description>
        <dc:creator>
          <cc:Agent>
            <dc:title>Arvin61r58</dc:title>
          </cc:Agent>
        </dc:creator>
        <dc:publisher>
          <cc:Agent>
            <dc:title>Openclipart.org</dc:title>
          </cc:Agent>
        </dc:publisher>
        <dc:identifier>https://openclipart.org/</dc:identifier>
        <dc:source>https://openclipart.org/user-detail/Arvin61r58</dc:source>
      </cc:Work>
      <cc:License
         rdf:about="http://creativecommons.org/publicdomain/zero/1.0/">
        <cc:permits
           rdf:resource="http://creativecommons.org/ns#Reproduction" />
        <cc:permits
           rdf:resource="http://creativecommons.org/ns#Distribution" />
        <cc:permits
           rdf:resource="http://creativecommons.org/ns#DerivativeWorks" />
      </cc:License>
    </rdf:RDF>
  </metadata>
  <g
     transform="translate(-2.0770842,-142.73209)"
     id="layer1">
    <path
       transform="matrix(1.3933319,0,0,1.1014335,-41.1253,136.76949)"
       id="path826"
       d="m 32.294317,14.14405 -0.338336,-0.47515 0.05456,-1.45021 0.05456,-1.45021 0.11322,-0.94588 0.11322,-0.94589 0.193535,-0.90506 0.193535,-0.90506 0.186986,-0.1482 0.186986,-0.14821 0.558932,-0.0778 0.558932,-0.0778 v 0.28657 0.28657 l 0.43804,0.19958 0.43804,0.19959 2.098653,0.0226 2.098652,0.0226 -0.601927,0.11228 -0.601927,0.11229 0.455375,0.0958 0.455374,0.0958 0.537836,-0.0789 0.537837,-0.0789 -0.182872,-0.22035 -0.182872,-0.22035 2.457266,0.006 2.457265,0.006 6.053828,-0.0582 6.05383,-0.0582 0.333012,0.30137 0.333012,0.30137 1.578136,-0.30252 1.578136,-0.30253 0.134223,0.21718 0.134222,0.21718 1.101687,0.008 1.101684,0.008 0.904346,-0.0381 0.904346,-0.0381 0.25292,0.20991 0.252922,0.2099 0.503567,-0.17554 0.503567,-0.17555 0.574895,0.12118 0.574896,0.12119 0.429948,-0.0489 0.429948,-0.0489 1.633802,-0.0653 1.633802,-0.0653 0.297737,0.26023 0.297737,0.26024 0.2182,-0.17185 0.218201,-0.17185 0.644921,-0.099 0.644923,-0.099 V 7.8833 7.98793 l -0.281379,0.31092 -0.281378,0.31092 0.267939,0.10282 0.267941,0.10281 0.346959,-0.18568 0.346959,-0.18569 0.112799,0.18251 0.1128,0.18252 0.499565,-0.10973 0.499565,-0.10972 v 0.41976 0.41977 l 0.429948,-0.0822 0.429948,-0.0822 V 9.16934 9.07394 L 76.364672,8.75939 76.080049,8.44488 h 0.273034 0.273034 l 0.109169,0.34396 0.109169,0.34396 h 0.496254 0.496256 l 0.467378,-0.21295 0.467378,-0.21295 0.07098,0.21295 0.07098,0.21295 h 0.253787 0.253786 l -0.09644,-0.15605 -0.09644,-0.15604 0.989181,-0.0598 0.989183,-0.0598 0.557553,0.0626 0.557553,0.0626 -0.08742,0.14144 -0.08742,0.14144 0.172878,0.10685 0.172881,0.10684 0.61369,-0.29121 0.613689,-0.29122 0.635064,0.19775 0.635064,0.19776 0.601927,-0.0151 0.601927,-0.0151 0.687917,0.0587 0.687916,0.0587 0.515938,-0.29052 0.515937,-0.29052 0.833136,-0.0481 0.833138,-0.0481 0.157942,0.28223 0.157944,0.28223 0.470743,-0.24557 0.470743,-0.24557 0.290813,-10e-4 0.290816,-10e-4 0.104939,0.1698 0.104942,0.1698 0.63612,-0.0931 0.63612,-0.0931 0.859896,-0.0587 0.859896,-0.0587 0.336895,0.17926 0.336895,0.17927 5.96831,0.0272 5.96829,0.0272 0.25018,0.20763 0.25019,0.20764 0.22823,-0.275 0.22823,-0.275 0.61149,0.10292 0.61149,0.10291 0.51593,-0.0338 0.51594,-0.0338 0.68792,0.011 0.68792,0.011 0.60192,-0.002 0.60193,-0.002 1.69077,-0.0202 1.69077,-0.0202 0.24126,0.3301 0.24126,0.33009 0.31725,-0.2871 0.31723,-0.2871 h 0.25679 0.25679 l 0.81813,0.27877 0.81814,0.27877 0.19278,-0.19278 0.19278,-0.19277 h 0.55633 0.55634 l 0.46057,0.17511 0.46057,0.17511 -0.11623,-0.46311 -0.11623,-0.46311 0.22579,0.18623 0.22578,0.18623 1.6338,0.0388 1.63381,0.0388 4.28139,-0.11371 4.28139,-0.11371 -0.41186,0.36068 -0.41186,0.36068 0.51594,-0.11069 0.51594,-0.11069 0.0569,-0.15789 0.0569,-0.15789 0.37307,0.19635 0.37308,0.19636 0.1019,0.15553 0.10188,0.15554 0.71502,-0.22316 0.715,-0.22315 V 9.26345 9.13335 h 0.50579 0.5058 l 0.0975,0.15774 0.0975,0.15774 0.64357,-0.18895 0.64356,-0.18896 2.91375,0.002 2.91374,10e-4 0.0672,0.20168 0.0672,0.20168 h 0.24363 0.24364 v 0.25797 0.25797 h 0.13758 0.13759 l 0.17593,-0.17593 0.17592,-0.17592 0.63995,0.26738 0.63994,0.26739 0.15384,-0.0951 0.15384,-0.0951 0.16218,0.28981 0.16218,0.2898 0.92326,0.12256 0.92326,0.12255 2.37481,-0.0726 2.37482,-0.0726 0.61891,0.38251 0.61892,0.38251 1.52433,-0.0267 1.52433,-0.0267 0.30436,-0.16289 0.30436,-0.16288 1.45482,0.0761 1.45482,0.0761 0.63704,0.0168 0.63704,0.0168 0.27814,-0.27814 0.27813,-0.27813 h 0.27305 0.27305 l 0.91337,-0.6896 0.91337,-0.6896 0.18107,-0.33834 0.18107,-0.33833 0.308,-0.16484 0.30799,-0.16483 0.70894,0.15929 0.70894,0.15928 0.8037,0.56054 0.8037,0.56054 0.53785,0.32021 0.53786,0.32021 1.14057,0.0644 1.14056,0.0644 0.46139,-0.42759 0.46138,-0.4276 h 0.15079 0.15078 l 0.21315,-0.95245 0.21315,-0.95245 0.2136,-0.29211 0.2136,-0.29212 0.36971,0.33458 0.3697,0.33458 -0.12001,1.55491 -0.12001,1.55491 -0.0399,1.46182 -0.0399,1.46182 -0.0222,0.0919 -0.0222,0.0919 -0.54139,0.31981 -0.54139,0.3198 0.11425,-0.18485 0.11424,-0.18485 -0.21778,-0.1352 -0.21778,-0.1352 -2.83765,-0.0588 -2.83766,-0.0588 -2.75167,-0.0361 -2.75166,-0.0361 -0.19031,0.13285 -0.1903,0.13285 -8.49465,0.005 -8.49464,0.006 -4.81541,0.0133 -4.81542,0.0133 -10.49073,-0.002 -10.49073,-0.002 -1.40925,-0.0336 -1.40925,-0.0336 -0.22455,0.13969 -0.22456,0.13969 -1.20385,-0.053 -1.20385,-0.053 -3.95552,-0.0574 -3.95551,-0.0574 -0.17199,0.005 -0.17197,0.005 -6.787786,0.0534 -6.787784,0.0534 -0.306368,-0.16392 -0.306358,-0.16396 v 0.14171 0.14171 l -3.740546,0.0384 -3.740547,0.0384 -0.773906,-0.0197 -0.773906,-0.0197 -1.289844,0.006 -1.289844,0.006 -12.726458,0.10333 -12.726458,0.10326 -1.525987,-0.0184 -1.525988,-0.0184 -0.380139,-0.14452 -0.38014,-0.14453 -0.243612,0.15291 -0.243613,0.1529 -0.257969,-0.078 -0.257969,-0.078 -1.891771,0.13997 -1.891771,0.13997 -0.278351,-0.13799 -0.278351,-0.13798 -0.09554,0.0955 -0.09554,0.0955 -4.909457,0.061 -4.909457,0.061 z m 55.476299,-0.48059 -0.114653,-0.11465 -0.114654,0.11465 -0.114651,0.11466 h 0.229305 0.229305 z M 53.26013,12.14431 v -0.086 h -0.08599 -0.08599 v 0.086 0.086 h 0.08599 0.08599 z m 26.599445,-0.20064 -0.114654,-0.11465 -0.114653,0.11465 -0.114652,0.11465 h 0.229305 0.229305 z m 1.26118,0.0287 v -0.086 h -0.08599 -0.08599 v 0.086 0.086 h 0.08599 0.08599 z M 64.782734,11.8004 v -0.086 h -0.08599 -0.08599 v 0.086 0.086 h 0.08599 0.08599 z m 82.034046,-0.51594 v -0.086 h -0.086 -0.086 v 0.086 0.086 h 0.086 0.086 z m 7.39511,-0.086 v -0.17198 l -0.38695,0.003 -0.38696,0.003 0.25798,0.16671 0.25796,0.16671 0.12899,0.003 0.12898,0.003 z M 58.357312,9.04872 58.258322,8.79075 h 0.330014 0.330016 l 0.157879,-0.28211 0.15788,-0.28212 0.197429,0.12202 0.19743,0.12202 -0.09895,0.16009 -0.09894,0.1601 h 0.182128 0.18213 V 8.46631 8.14187 l -0.531869,-0.0781 -0.531868,-0.0781 -0.102396,0.27352 -0.102396,0.27351 -0.251905,0.18889 -0.251907,0.18888 0.122414,0.19807 0.122412,0.19807 h 0.09424 0.09424 z m 2.216574,0.0935 -0.101647,-0.16447 -0.252462,0.0969 -0.25246,0.0969 v 0.0676 0.0676 h 0.354109 0.354107 z M 36.66414,7.93085 l 0.106289,-0.17198 -0.397102,0.003 -0.397103,0.003 0.257968,0.16672 0.257969,0.16671 0.03285,0.003 0.03284,0.003 z m 1.117865,0 V 7.75888 h -0.257969 -0.257969 v 0.17197 0.17198 h 0.257969 0.257969 z m 49.014062,0.94589 v -0.086 h 0.08599 0.08599 v 0.086 0.086 h -0.08599 -0.08599 z m -12.468489,-0.77391 -0.343959,-0.1478 0.859896,-0.01 0.859896,-0.01 -0.257969,0.16671 -0.257968,0.16671 -0.257969,-0.01 -0.257969,-0.01 z"
       style="fill:url(#linearGradient923);fill-opacity:1;stroke-width:0.80722302;filter:url(#filter1311)">
      <title
         id="title2150">Grunge Divider  --  by Arvin61r57</title>
    </path>
  </g>
</svg>
